<svg width="178" height="54" viewBox="0 0 178 54" fill="none" xmlns="http://www.w3.org/2000/svg">
<path d="M49 26.9637L25.1582 54H23.5493L0 26.9637L23.5493 0H25.1582L49 26.9637ZM37.4448 26.9637L24.3537 11.6285L11.3358 26.9637L24.3537 42.3715L37.4448 26.9637Z" fill="white"/>
<path d="M60.7611 16.88H69.8391C72.2418 16.88 74.0438 17.3673 75.2451 18.342C76.4465 19.294 77.0471 20.8467 77.0471 23C77.0471 24.292 76.8545 25.3233 76.4691 26.094C76.0838 26.842 75.4265 27.5107 74.4971 28.1C75.5171 28.5307 76.2651 29.154 76.7411 29.97C77.2398 30.786 77.4891 31.9193 77.4891 33.37C77.4891 35.614 76.8318 37.28 75.5171 38.368C74.2025 39.456 72.3551 40 69.9751 40H60.7611V16.88ZM69.7371 30.344H65.4531V35.988H69.7371C70.7571 35.988 71.5051 35.784 71.9811 35.376C72.4798 34.968 72.7291 34.22 72.7291 33.132C72.7291 31.2733 71.7318 30.344 69.7371 30.344ZM69.6011 20.892H65.4531V26.4H69.6351C71.4031 26.4 72.2871 25.482 72.2871 23.646C72.2871 21.81 71.3918 20.892 69.6011 20.892ZM80.8679 33.03V28.882H90.9319V33.03H80.8679ZM110.013 39.626C107.61 40.1473 105.445 40.408 103.519 40.408C101.592 40.408 100.051 40.17 98.8948 39.694C97.7388 39.218 96.8321 38.4587 96.1748 37.416C95.5174 36.3733 95.0641 35.1493 94.8148 33.744C94.5654 32.3387 94.4408 30.5707 94.4408 28.44C94.4408 23.9747 95.0641 20.8693 96.3108 19.124C97.5801 17.356 99.9034 16.472 103.281 16.472C105.23 16.472 107.485 16.778 110.047 17.39L109.911 21.13C107.667 20.79 105.797 20.62 104.301 20.62C102.827 20.62 101.773 20.824 101.139 21.232C100.504 21.6173 100.028 22.3653 99.7108 23.476C99.4161 24.5867 99.2688 26.4793 99.2688 29.154C99.2688 31.8287 99.5748 33.6873 100.187 34.73C100.821 35.75 102.068 36.26 103.927 36.26C105.808 36.26 107.803 36.1013 109.911 35.784L110.013 39.626ZM113.616 40V16.2H118.172V40H113.616ZM132.606 23H137.162V40H132.64V39.048C131.008 39.9547 129.591 40.408 128.39 40.408C126.032 40.408 124.446 39.762 123.63 38.47C122.814 37.1553 122.406 34.968 122.406 31.908V23H126.962V31.976C126.962 33.6533 127.098 34.798 127.37 35.41C127.642 36.022 128.299 36.328 129.342 36.328C130.339 36.328 131.28 36.1693 132.164 35.852L132.606 35.716V23ZM149.597 22.592C151.977 22.592 153.711 23.2493 154.799 24.564C155.909 25.856 156.465 28.1793 156.465 31.534C156.465 34.8887 155.83 37.212 154.561 38.504C153.291 39.7733 151.104 40.408 147.999 40.408C147.024 40.408 145.245 40.2947 142.661 40.068L141.369 39.932V16.2H145.925V23.51C147.375 22.898 148.599 22.592 149.597 22.592ZM147.999 36.328C149.517 36.328 150.537 35.9653 151.059 35.24C151.58 34.492 151.841 33.166 151.841 31.262C151.841 28.202 150.889 26.672 148.985 26.672C148.078 26.672 147.217 26.7853 146.401 27.012L145.925 27.114V36.192C146.967 36.2827 147.659 36.328 147.999 36.328Z" fill="white"/>
</svg>
